0
SECTION
2
HEADER
9
$INSUNITS
70
4
9
$ACADVER
1
AC1014
9
$HANDSEED
5
FFFF
0
ENDSEC
0
SECTION
2
TABLES
0
TABLE
2
VPORT
5
8
100
AcDbSymbolTable
0
ENDTAB
0
TABLE
2
LTYPE
5
5
100
AcDbSymbolTable
0
LTYPE
5
14
100
AcDbSymbolTableRecord
100
AcDbLinetypeTableRecord
2
BYBLOCK
70
0
0
LTYPE
5
15
100
AcDbSymbolTableRecord
100
AcDbLinetypeTableRecord
2
BYLAYER
70
0
0
ENDTAB
0
TABLE
2
LAYER
5
2
100
AcDbSymbolTable
70
2
0
LAYER
5
50
100
AcDbSymbolTableRecord
100
AcDbLayerTableRecord
2
0
70
0
6
CONTINUOUS
0
ENDTAB
0
TABLE
2
STYLE
5
3
100
AcDbSymbolTable
70
1
0
STYLE
5
11
100
AcDbSymbolTableRecord
100
AcDbTextStyleTableRecord
2
STANDARD
70
0
0
ENDTAB
0
TABLE
2
VIEW
5
6
100
AcDbSymbolTable
70
0
0
ENDTAB
0
TABLE
2
UCS
5
7
100
AcDbSymbolTable
70
0
0
ENDTAB
0
TABLE
2
APPID
5
9
100
AcDbSymbolTable
70
2
0
APPID
5
12
100
AcDbSymbolTableRecord
100
AcDbRegAppTableRecord
2
ACAD
70
0
0
ENDTAB
0
TABLE
2
DIMSTYLE
5
A
100
AcDbSymbolTable
70
1
0
ENDTAB
0
TABLE
2
BLOCK_RECORD
5
1
100
AcDbSymbolTable
70
1
0
BLOCK_RECORD
5
1F
100
AcDbSymbolTableRecord
100
AcDbBlockTableRecord
2
*MODEL_SPACE
0
BLOCK_RECORD
5
1B
100
AcDbSymbolTableRecord
100
AcDbBlockTableRecord
2
*PAPER_SPACE
0
ENDTAB
0
ENDSEC
0
SECTION
2
BLOCKS
0
BLOCK
5
20
100
AcDbEntity
100
AcDbBlockBegin
2
*MODEL_SPACE
0
ENDBLK
5
21
100
AcDbEntity
100
AcDbBlockEnd
0
BLOCK
5
1C
100
AcDbEntity
100
AcDbBlockBegin
2
*PAPER_SPACE
0
ENDBLK
5
1D
100
AcDbEntity
100
AcDbBlockEnd
0
ENDSEC
0
SECTION
2
ENTITIES
0
LWPOLYLINE
5
100
100
AcDbEntity
8
0
100
AcDbPolyline
90
34
70
1
43
0.0
10
-139.79119161060825
20
-92.981847140275718
10
-130.26610713113934
20
-92.981847140275718
10
-130.26610713113934
20
-112.03202945078098
10
-120.7410150222033
20
-112.03202945078098
10
-120.7410150222033
20
-116.03202945078098
10
-85.7410150222033
20
-116.03202945078098
10
-85.7410150222033
20
-112.03202945078098
10
-60.490103469676924
20
-112.03202945078098
10
-60.490103469676946
20
-116.03202945078098
10
-25.490103469676946
20
-116.03202945078098
10
-25.490103469676946
20
-112.03202945078098
10
-15.965013268107704
20
-112.03202945078098
10
-15.965013268107704
20
-62.856398039796247
10
-11.9650132681077
20
-62.856398039796247
10
-11.9650132681077
20
-27.856398039796247
10
-15.965013268107704
20
-27.856398039796247
10
-15.965013268107704
20
-16.781121712988192
10
-36.565377889118253
20
-16.781121712988192
10
-36.565377889118253
20
-12.781121712988188
10
-71.565377889118253
20
-12.781121712988188
10
-71.565377889118253
20
-16.781121712988192
10
-109.55374147980982
20
-16.781121712988181
10
-109.55374147980982
20
-12.781121712988153
10
-144.55374147980982
20
-12.781121712988188
10
-144.55374147980982
20
-16.781121712988192
10
-154.07883358874582
20
-16.781121712988192
10
-154.07883358874582
20
-54.881490148732283
10
-155.84285385450679
20
-55.542998123709133
42
-0.57735026918961607
10
-157.46462344922409
20
-56.151162066779065
10
-157.82415003704051
20
-56.285984613703832
10
-145.53482346853983
20
-89.057503536279583
10
-145.1752968758064
20
-88.922680987510958
42
-0.57735026918953791
10
-143.5535272810892
20
-88.314517044441118
10
-141.7895070202454
20
-87.653009071308247
0
ENDSEC
0
SECTION
2
OBJECTS
0
DICTIONARY
5
C
100
AcDbDictionary
3
ACAD_GROUP
350
D
3
ACAD_MLINESTYLE
350
17
0
DICTIONARY
5
D
100
AcDbDictionary
0
DICTIONARY
5
1A
330
C
100
AcDbDictionary
0
DICTIONARY
5
17
100
AcDbDictionary
0
ENDSEC
0
EOF
