0
SECTION
2
HEADER
9
$INSUNITS
70
4
9
$ACADVER
1
AC1014
9
$HANDSEED
5
FFFF
0
ENDSEC
0
SECTION
2
TABLES
0
TABLE
2
VPORT
5
8
100
AcDbSymbolTable
0
ENDTAB
0
TABLE
2
LTYPE
5
5
100
AcDbSymbolTable
0
LTYPE
5
14
100
AcDbSymbolTableRecord
100
AcDbLinetypeTableRecord
2
BYBLOCK
70
0
0
LTYPE
5
15
100
AcDbSymbolTableRecord
100
AcDbLinetypeTableRecord
2
BYLAYER
70
0
0
ENDTAB
0
TABLE
2
LAYER
5
2
100
AcDbSymbolTable
70
2
0
LAYER
5
50
100
AcDbSymbolTableRecord
100
AcDbLayerTableRecord
2
0
70
0
6
CONTINUOUS
0
ENDTAB
0
TABLE
2
STYLE
5
3
100
AcDbSymbolTable
70
1
0
STYLE
5
11
100
AcDbSymbolTableRecord
100
AcDbTextStyleTableRecord
2
STANDARD
70
0
0
ENDTAB
0
TABLE
2
VIEW
5
6
100
AcDbSymbolTable
70
0
0
ENDTAB
0
TABLE
2
UCS
5
7
100
AcDbSymbolTable
70
0
0
ENDTAB
0
TABLE
2
APPID
5
9
100
AcDbSymbolTable
70
2
0
APPID
5
12
100
AcDbSymbolTableRecord
100
AcDbRegAppTableRecord
2
ACAD
70
0
0
ENDTAB
0
TABLE
2
DIMSTYLE
5
A
100
AcDbSymbolTable
70
1
0
ENDTAB
0
TABLE
2
BLOCK_RECORD
5
1
100
AcDbSymbolTable
70
1
0
BLOCK_RECORD
5
1F
100
AcDbSymbolTableRecord
100
AcDbBlockTableRecord
2
*MODEL_SPACE
0
BLOCK_RECORD
5
1B
100
AcDbSymbolTableRecord
100
AcDbBlockTableRecord
2
*PAPER_SPACE
0
ENDTAB
0
ENDSEC
0
SECTION
2
BLOCKS
0
BLOCK
5
20
100
AcDbEntity
100
AcDbBlockBegin
2
*MODEL_SPACE
0
ENDBLK
5
21
100
AcDbEntity
100
AcDbBlockEnd
0
BLOCK
5
1C
100
AcDbEntity
100
AcDbBlockBegin
2
*PAPER_SPACE
0
ENDBLK
5
1D
100
AcDbEntity
100
AcDbBlockEnd
0
ENDSEC
0
SECTION
2
ENTITIES
0
LWPOLYLINE
5
100
100
AcDbEntity
8
0
100
AcDbPolyline
90
54
70
1
43
0.0
10
-139.79119161060825
20
-92.981847140275718
10
-130.26610713113934
20
-92.981847140275718
10
-130.26610713113934
20
-112.03202945078098
10
-120.7410150222033
20
-112.03202945078098
10
-120.74101502220327
20
-115.28202945077972
42
-0.99999999999999989
10
-120.7410150222033
20
-117.2820294507797
10
-120.7410150222033
20
-117.532029450781
10
-85.7410150222033
20
-117.532029450781
10
-85.741015022203328
20
-117.28202945078098
42
-0.99999999999999989
10
-85.7410150222033
20
-115.282029450781
10
-85.7410150222033
20
-112.03202945078098
10
-60.490103469676924
20
-112.03202945078098
10
-60.490103469676967
20
-115.282029450781
42
-0.99999999999999989
10
-60.490103469676946
20
-117.28202945078098
10
-60.490103469676967
20
-117.532029450781
10
-25.490103469676946
20
-117.532029450781
10
-25.490103469676963
20
-117.28202945078101
42
-0.99999999999999989
10
-25.490103469676946
20
-115.28202945078101
10
-25.490103469676946
20
-112.03202945078098
10
-15.965013268107704
20
-112.03202945078098
10
-15.965013268107704
20
-62.856398039796247
10
-12.715013268107692
20
-62.856398039796233
42
-0.99999999999999989
10
-10.715013268107707
20
-62.856398039796247
10
-10.465013268107697
20
-62.856398039796261
10
-10.465013268107715
20
-27.856398039796257
10
-10.7150132681077
20
-27.856398039796222
42
-0.99999999999999989
10
-12.715013268107711
20
-27.856398039796257
10
-15.965013268107704
20
-27.856398039796247
10
-15.965013268107704
20
-16.781121712988192
10
-36.565377889118253
20
-16.781121712988192
10
-36.56537788911826
20
-13.531121712988181
42
-0.99999999999999989
10
-36.565377889118238
20
-11.531121712988185
10
-36.565377889118253
20
-11.281121712988185
10
-71.565377889118253
20
-11.281121712988185
10
-71.565377889118309
20
-11.531121712989476
42
-0.99999999999999989
10
-71.565377889118253
20
-13.531121712989487
10
-71.565377889118253
20
-16.781121712988192
10
-109.55374147980982
20
-16.781121712988181
10
-109.55374147980977
20
-13.531121712988153
42
-0.99999999999999989
10
-109.55374147980982
20
-11.53112171298816
10
-109.55374147980982
20
-11.281121712988149
10
-144.55374147980982
20
-11.281121712988185
10
-144.55374147980984
20
-11.531121712988156
42
-0.99999999999999989
10
-144.55374147980982
20
-13.531121712988154
10
-144.55374147980982
20
-16.781121712988192
10
-154.07883358874582
20
-16.781121712988192
10
-154.07883358874582
20
-54.881490148732283
10
-157.12190320314019
20
-56.022641901579881
42
-0.99999999999999989
10
-158.99456142728746
20
-56.724889134065563
10
-159.22864370515055
20
-56.812670038068035
10
-146.93931713665026
20
-89.584188960643985
10
-146.70523485846905
20
-89.496408056544894
42
-0.99999999999999989
10
-144.83257663433679
20
-88.794160824019386
10
-141.7895070202454
20
-87.653009071308247
0
ENDSEC
0
SECTION
2
OBJECTS
0
DICTIONARY
5
C
100
AcDbDictionary
3
ACAD_GROUP
350
D
3
ACAD_MLINESTYLE
350
17
0
DICTIONARY
5
D
100
AcDbDictionary
0
DICTIONARY
5
1A
330
C
100
AcDbDictionary
0
DICTIONARY
5
17
100
AcDbDictionary
0
ENDSEC
0
EOF
